<svg width="128" height="26" viewBox="0 0 128 26" fill="none" xmlns="http://www.w3.org/2000/svg">
<path d="M37.7188 16.5078C37.3333 17.0599 36.7943 17.474 36.1016 17.75C35.4141 18.0208 34.612 18.1562 33.6953 18.1562C32.7682 18.1562 31.9453 17.9401 31.2266 17.5078C30.5078 17.0703 29.9505 16.4505 29.5547 15.6484C29.1641 14.8464 28.9635 13.9167 28.9531 12.8594V11.8672C28.9531 10.1536 29.3516 8.82552 30.1484 7.88281C30.9505 6.9401 32.0755 6.46875 33.5234 6.46875C34.7109 6.46875 35.6667 6.77344 36.3906 7.38281C37.1146 7.98698 37.5573 8.84635 37.7188 9.96094H36.2188C35.9375 8.45573 35.0417 7.70312 33.5312 7.70312C32.526 7.70312 31.763 8.05729 31.2422 8.76562C30.7266 9.46875 30.4661 10.4896 30.4609 11.8281V12.7578C30.4609 14.0339 30.7526 15.0495 31.3359 15.8047C31.9193 16.5547 32.7083 16.9297 33.7031 16.9297C34.2656 16.9297 34.7578 16.8672 35.1797 16.7422C35.6016 16.6172 35.9505 16.4062 36.2266 16.1094V13.5547H33.5938V12.3359H37.7188V16.5078ZM45.2188 18C45.1354 17.8333 45.0677 17.5365 45.0156 17.1094C44.3438 17.8073 43.5417 18.1562 42.6094 18.1562C41.776 18.1562 41.0911 17.9219 40.5547 17.4531C40.0234 16.9792 39.7578 16.3802 39.7578 15.6562C39.7578 14.776 40.0911 14.0938 40.7578 13.6094C41.4297 13.1198 42.3724 12.875 43.5859 12.875H44.9922V12.2109C44.9922 11.7057 44.8411 11.3047 44.5391 11.0078C44.237 10.7057 43.7917 10.5547 43.2031 10.5547C42.6875 10.5547 42.2552 10.6849 41.9062 10.9453C41.5573 11.2057 41.3828 11.5208 41.3828 11.8906H39.9297C39.9297 11.4688 40.0781 11.0625 40.375 10.6719C40.6771 10.276 41.0833 9.96354 41.5938 9.73438C42.1094 9.50521 42.6745 9.39062 43.2891 9.39062C44.263 9.39062 45.026 9.63542 45.5781 10.125C46.1302 10.6094 46.4167 11.2786 46.4375 12.1328V16.0234C46.4375 16.7995 46.5365 17.4167 46.7344 17.875V18H45.2188ZM42.8203 16.8984C43.2734 16.8984 43.7031 16.7812 44.1094 16.5469C44.5156 16.3125 44.8099 16.0078 44.9922 15.6328V13.8984H43.8594C42.0885 13.8984 41.2031 14.4167 41.2031 15.4531C41.2031 15.9062 41.3542 16.2604 41.6562 16.5156C41.9583 16.7708 42.3464 16.8984 42.8203 16.8984ZM55.8594 13.8672C55.8594 15.1589 55.5625 16.1979 54.9688 16.9844C54.375 17.7656 53.5781 18.1562 52.5781 18.1562C51.5104 18.1562 50.6849 17.7786 50.1016 17.0234L50.0312 18H48.7031V6H50.1484V10.4766C50.7318 9.7526 51.5365 9.39062 52.5625 9.39062C53.5885 9.39062 54.3932 9.77865 54.9766 10.5547C55.5651 11.3307 55.8594 12.3932 55.8594 13.7422V13.8672ZM54.4141 13.7031C54.4141 12.7188 54.224 11.9583 53.8438 11.4219C53.4635 10.8854 52.9167 10.6172 52.2031 10.6172C51.25 10.6172 50.5651 11.0599 50.1484 11.9453V15.6016C50.5911 16.487 51.2812 16.9297 52.2188 16.9297C52.9115 16.9297 53.4505 16.6615 53.8359 16.125C54.2214 15.5885 54.4141 14.7812 54.4141 13.7031ZM61.7734 10.8438C61.5547 10.8073 61.3177 10.7891 61.0625 10.7891C60.1146 10.7891 59.4714 11.1927 59.1328 12V18H57.6875V9.54688H59.0938L59.1172 10.5234C59.5911 9.76823 60.263 9.39062 61.1328 9.39062C61.4141 9.39062 61.6276 9.42708 61.7734 9.5V10.8438ZM64.6797 18H63.2344V9.54688H64.6797V18ZM63.1172 7.30469C63.1172 7.07031 63.1875 6.8724 63.3281 6.71094C63.474 6.54948 63.6875 6.46875 63.9688 6.46875C64.25 6.46875 64.4635 6.54948 64.6094 6.71094C64.7552 6.8724 64.8281 7.07031 64.8281 7.30469C64.8281 7.53906 64.7552 7.73438 64.6094 7.89062C64.4635 8.04688 64.25 8.125 63.9688 8.125C63.6875 8.125 63.474 8.04688 63.3281 7.89062C63.1875 7.73438 63.1172 7.53906 63.1172 7.30469ZM70.5078 18.1562C69.362 18.1562 68.4297 17.7812 67.7109 17.0312C66.9922 16.276 66.6328 15.2682 66.6328 14.0078V13.7422C66.6328 12.9036 66.7917 12.1562 67.1094 11.5C67.4323 10.8385 67.8802 10.3229 68.4531 9.95312C69.0312 9.57812 69.6562 9.39062 70.3281 9.39062C71.4271 9.39062 72.2812 9.7526 72.8906 10.4766C73.5 11.2005 73.8047 12.237 73.8047 13.5859V14.1875H68.0781C68.099 15.0208 68.3411 15.6953 68.8047 16.2109C69.2734 16.7214 69.8672 16.9766 70.5859 16.9766C71.0964 16.9766 71.5286 16.8724 71.8828 16.6641C72.237 16.4557 72.5469 16.1797 72.8125 15.8359L73.6953 16.5234C72.987 17.612 71.9245 18.1562 70.5078 18.1562ZM70.3281 10.5781C69.7448 10.5781 69.2552 10.7917 68.8594 11.2188C68.4635 11.6406 68.2188 12.2344 68.125 13H72.3594V12.8906C72.3177 12.1562 72.1198 11.5885 71.7656 11.1875C71.4115 10.7812 70.9323 10.5781 70.3281 10.5781ZM77.0547 18H75.6094V6H77.0547V18ZM82.3828 13.7578H78.5703V12.5781H82.3828V13.7578ZM90.3047 15.0312H85.5391L84.4688 18H82.9219L87.2656 6.625H88.5781L92.9297 18H91.3906L90.3047 15.0312ZM85.9922 13.7969H89.8594L87.9219 8.47656L85.9922 13.7969ZM93.8828 13.7031C93.8828 12.375 94.1875 11.3255 94.7969 10.5547C95.4062 9.77865 96.224 9.39062 97.25 9.39062C98.25 9.39062 99.0391 9.72656 99.6172 10.3984L99.6797 9.54688H101.008V21.25H99.5625V17.2188C98.9792 17.8438 98.2031 18.1562 97.2344 18.1562C96.2135 18.1562 95.3984 17.7604 94.7891 16.9688C94.1849 16.1719 93.8828 15.1172 93.8828 13.8047V13.7031ZM95.3281 13.8672C95.3281 14.8359 95.5312 15.5964 95.9375 16.1484C96.349 16.7005 96.901 16.9766 97.5938 16.9766C98.4531 16.9766 99.1094 16.5964 99.5625 15.8359V11.6953C99.1042 10.9505 98.4531 10.5781 97.6094 10.5781C96.9115 10.5781 96.3568 10.8568 95.9453 11.4141C95.5339 11.9661 95.3281 12.7839 95.3281 13.8672ZM108.547 17.1641C107.984 17.8255 107.159 18.1562 106.07 18.1562C105.169 18.1562 104.482 17.8958 104.008 17.375C103.539 16.849 103.302 16.0729 103.297 15.0469V9.54688H104.742V15.0078C104.742 16.2891 105.263 16.9297 106.305 16.9297C107.409 16.9297 108.143 16.5182 108.508 15.6953V9.54688H109.953V18H108.578L108.547 17.1641ZM113.727 18H112.281V9.54688H113.727V18ZM112.164 7.30469C112.164 7.07031 112.234 6.8724 112.375 6.71094C112.521 6.54948 112.734 6.46875 113.016 6.46875C113.297 6.46875 113.51 6.54948 113.656 6.71094C113.802 6.8724 113.875 7.07031 113.875 7.30469C113.875 7.53906 113.802 7.73438 113.656 7.89062C113.51 8.04688 113.297 8.125 113.016 8.125C112.734 8.125 112.521 8.04688 112.375 7.89062C112.234 7.73438 112.164 7.53906 112.164 7.30469ZM117.617 18H116.172V6H117.617V18ZM125.156 18C125.073 17.8333 125.005 17.5365 124.953 17.1094C124.281 17.8073 123.479 18.1562 122.547 18.1562C121.714 18.1562 121.029 17.9219 120.492 17.4531C119.961 16.9792 119.695 16.3802 119.695 15.6562C119.695 14.776 120.029 14.0938 120.695 13.6094C121.367 13.1198 122.31 12.875 123.523 12.875H124.93V12.2109C124.93 11.7057 124.779 11.3047 124.477 11.0078C124.174 10.7057 123.729 10.5547 123.141 10.5547C122.625 10.5547 122.193 10.6849 121.844 10.9453C121.495 11.2057 121.32 11.5208 121.32 11.8906H119.867C119.867 11.4688 120.016 11.0625 120.312 10.6719C120.615 10.276 121.021 9.96354 121.531 9.73438C122.047 9.50521 122.612 9.39062 123.227 9.39062C124.201 9.39062 124.964 9.63542 125.516 10.125C126.068 10.6094 126.354 11.2786 126.375 12.1328V16.0234C126.375 16.7995 126.474 17.4167 126.672 17.875V18H125.156ZM122.758 16.8984C123.211 16.8984 123.641 16.7812 124.047 16.5469C124.453 16.3125 124.747 16.0078 124.93 15.6328V13.8984H123.797C122.026 13.8984 121.141 14.4167 121.141 15.4531C121.141 15.9062 121.292 16.2604 121.594 16.5156C121.896 16.7708 122.284 16.8984 122.758 16.8984Z" fill="#C4C4CC"/>
<path d="M7.999 5.16653C3.582 5.16653 0 8.76253 0 13.1985C0 16.7465 2.292 19.7565 5.472 20.8195C5.872 20.8935 6.018 20.6455 6.018 20.4325C6.018 20.2415 6.011 19.7365 6.007 19.0665C3.782 19.5515 3.312 17.9895 3.312 17.9895C2.949 17.0615 2.424 16.8145 2.424 16.8145C1.697 16.3165 2.478 16.3265 2.478 16.3265C3.281 16.3835 3.703 17.1545 3.703 17.1545C4.417 18.3815 5.576 18.0275 6.032 17.8215C6.104 17.3025 6.311 16.9485 6.54 16.7475C4.764 16.5445 2.896 15.8555 2.896 12.7785C2.896 11.9015 3.208 11.1845 3.72 10.6225C3.637 10.4195 3.363 9.60253 3.798 8.49753C3.798 8.49753 4.47 8.28153 5.998 9.32053C6.636 9.14253 7.32 9.05353 8.001 9.05053C8.68 9.05453 9.365 9.14253 10.004 9.32153C11.531 8.28253 12.202 8.49853 12.202 8.49853C12.638 9.60453 12.364 10.4205 12.282 10.6235C12.795 11.1855 13.104 11.9025 13.104 12.7795C13.104 15.8645 11.234 16.5435 9.452 16.7425C9.739 16.9905 9.995 17.4805 9.995 18.2295C9.995 19.3035 9.985 20.1695 9.985 20.4325C9.985 20.6475 10.129 20.8975 10.535 20.8185C13.71 19.7545 16 16.7455 16 13.1985C16 8.76253 12.418 5.16653 7.999 5.16653Z" fill="#C4C4CC"/>
</svg>
